<?xml version="1.0" encoding="iso-8859-1"?>
<!-- Uploaded to: SVG Repo, www.svgrepo.com, Generator: SVG Repo Mixer Tools -->
<svg version="1.1" id="Layer_1" xmlns="http://www.w3.org/2000/svg" xmlns:xlink="http://www.w3.org/1999/xlink" 
	 viewBox="0 0 512 512" xml:space="preserve">
<polygon style="fill:#D7D7D7;" points="360.648,112.219 151.352,112.219 112.532,31.722 399.468,31.722 "/>
<polygon style="fill:#B0B0B0;" points="360.648,112.219 256,112.219 256,31.722 399.468,31.722 "/>
<rect x="239.304" y="127.878" style="fill:#C2E2FD;" width="33.391" height="57.01"/>
<rect x="256" y="127.878" style="fill:#67B5F8;" width="16.696" height="57.01"/>
<rect x="178.087" y="124.529" transform="matrix(-0.9375 -0.3481 0.3481 -0.9375 324.1066 364.2997)" style="fill:#C2E2FD;" width="33.39" height="57.007"/>
<rect x="288.709" y="136.33" transform="matrix(-0.3481 -0.9375 0.9375 -0.3481 284.188 503.6663)" style="fill:#67B5F8;" width="57.007" height="33.39"/>
<path style="fill:#444444;" d="M129.453,501.768h-46.57c-11.93,0-21.6-9.67-21.6-21.6v-39.412c0-11.93,9.67-21.6,21.6-21.6h46.57
	c11.93,0,21.6,9.671,21.6,21.6v39.412C151.052,492.098,141.381,501.768,129.453,501.768z"/>
<path style="fill:#282828;" d="M429.118,501.768h-46.57c-11.93,0-21.6-9.67-21.6-21.6v-39.412c0-11.93,9.671-21.6,21.6-21.6h46.57
	c11.93,0,21.6,9.671,21.6,21.6v39.412C450.718,492.098,441.048,501.768,429.118,501.768z"/>
<path style="fill:#6F6F6F;" d="M103.642,325.8H66.855l-13.566-24.19c-4.858-8.663-4.763-18.952,0.257-27.522
	c5.02-8.572,13.948-13.688,23.879-13.688h40.055v26.904L103.642,325.8z"/>
<path style="fill:#444444;" d="M445.145,325.8h-36.787l-13.84-38.495v-26.904h40.055c9.933,0,18.859,5.117,23.879,13.688
	c5.02,8.57,5.117,18.859,0.257,27.522L445.145,325.8z"/>
<path style="fill:#BF0F36;" d="M417.816,298.896l-33.958-94.455H128.141l-33.958,94.455H61.282V446.06h389.436V298.896H417.816z"/>
<polygon style="fill:#9D092B;" points="450.718,298.896 417.816,298.896 383.859,204.44 256,204.44 256,446.06 450.718,446.06 "/>
<polygon style="fill:#C2E2FD;" points="147.059,231.345 364.941,231.345 389.227,298.896 122.773,298.896 "/>
<circle style="fill:#F4DA49;" cx="147.512" cy="368.807" r="26.291"/>
<circle style="fill:#E69824;" cx="364.477" cy="368.807" r="26.291"/>
<polygon style="fill:#67B5F8;" points="364.941,231.345 256,231.345 256,298.896 389.227,298.896 "/>
<polygon style="fill:#F4DA49;" points="512,503.652 478.609,503.652 478.609,41.739 33.391,41.739 33.391,503.652 0,503.652 
	0,8.348 512,8.348 "/>
</svg>