<?xml version="1.0" encoding="utf-8"?>
<!-- Generator: Adobe Illustrator 27.5.0, SVG Export Plug-In . SVG Version: 6.00 Build 0)  -->
<svg version="1.1" xmlns="http://www.w3.org/2000/svg" xmlns:xlink="http://www.w3.org/1999/xlink" x="0px" y="0px"
	 viewBox="0 0 750 500" style="enable-background:new 0 0 750 500;" xml:space="preserve">
<g id="Background_Simple">
	<g>
		<path style="fill:#92E3A9;" d="M692.763,364.882c17.262-31.958,19.812-68.472,15.764-103.714
			c-3.591-31.26-9.012-67.116-24.17-95.333C645.96,94.358,548.887,60.811,470.066,82.305c-32.874,8.964-55.934,29.746-82.33,49.521
			c-19.515,14.62-40.929,28.896-66.144,31.819c-60.395,7-129.12-50-186.39-45s-102.046,56-104.129,100
			c-2.083,44,41.652,89,37.486,119c-4.165,30-31.239,110,76.014,113s163.482-57,205.134-44c41.651,13,133.282,50.999,210.336,41
			c50.271-6.523,99.415-31.207,126.974-73.141C689.093,371.345,691.005,368.137,692.763,364.882z"/>
		<path style="opacity:0.8;fill:#FFFFFF;" d="M692.763,364.882c17.262-31.958,19.812-68.472,15.764-103.714
			c-3.591-31.26-9.012-67.116-24.17-95.333C645.96,94.358,548.887,60.811,470.066,82.305c-32.874,8.964-55.934,29.746-82.33,49.521
			c-19.515,14.62-40.929,28.896-66.144,31.819c-60.395,7-129.12-50-186.39-45s-102.046,56-104.129,100
			c-2.083,44,41.652,89,37.486,119c-4.165,30-31.239,110,76.014,113s163.482-57,205.134-44c41.651,13,133.282,50.999,210.336,41
			c50.271-6.523,99.415-31.207,126.974-73.141C689.093,371.345,691.005,368.137,692.763,364.882z"/>
	</g>
</g>
<g id="Floor">
	
		<line style="fill:none;stroke:#263238;stroke-linecap:round;stroke-linejoin:round;stroke-miterlimit:10;" x1="27.807" y1="467.833" x2="726.984" y2="467.833"/>
</g>
<g id="Clouds">
	<path style="fill:none;stroke:#263238;stroke-linecap:round;stroke-miterlimit:10;" d="M301.843,40.74
		c0,0-3.264-8.703-10.878-10.335c-7.615-1.632-10.607,2.992-12.238,6.799c-1.632,3.807-6.527,0.816-10.607,0.272
		c-4.079-0.544-6.255,3.535-7.071,6.527c-0.816,2.991-5.983-1.36-10.606,1.36c-4.623,2.72-5.439,6.255-6.527,7.071
		c-1.088,0.816-4.079-0.544-5.711,1.632c-1.632,2.176-1.632,2.176-1.632,2.176h85.124c0,0,2.72-6.255-2.448-10.878
		C314.081,40.74,305.106,47.811,301.843,40.74z"/>
	<path style="fill:none;stroke:#263238;stroke-linecap:round;stroke-miterlimit:10;" d="M536.826,48.788
		c0,0-5.725-15.266-19.083-18.128c-13.358-2.863-18.605,5.248-21.468,11.927c-2.862,6.679-11.449,1.431-18.605,0.477
		c-7.156-0.954-10.972,6.202-12.404,11.449c-1.431,5.248-10.495-2.385-18.605,2.385c-8.11,4.771-9.541,10.972-11.449,12.404
		c-1.908,1.431-7.156-0.954-10.018,2.862c-2.862,3.816-2.862,3.816-2.862,3.816h149.321c0,0,4.771-10.972-4.294-19.083
		C558.294,48.788,542.551,61.192,536.826,48.788z"/>
	<path style="fill:none;stroke:#263238;stroke-linecap:round;stroke-miterlimit:10;" d="M154.918,74.673c0,0-2.25-5.998-7.498-7.123
		c-5.249-1.125-7.311,2.062-8.435,4.686c-1.125,2.624-4.499,0.562-7.311,0.187c-2.812-0.375-4.311,2.437-4.874,4.499
		c-0.562,2.062-4.124-0.937-7.311,0.937c-3.187,1.875-3.749,4.311-4.499,4.874c-0.75,0.562-2.812-0.375-3.937,1.125
		c-1.125,1.5-1.125,1.5-1.125,1.5h58.672c0,0,1.874-4.311-1.687-7.498C163.353,74.673,157.167,79.547,154.918,74.673z"/>
	<path style="fill:none;stroke:#263238;stroke-linecap:round;stroke-miterlimit:10;" d="M581.976,100.225
		c0,0-2.249-5.998-7.498-7.123c-5.249-1.125-7.31,2.062-8.435,4.686c-1.125,2.624-4.499,0.562-7.31,0.187
		c-2.812-0.375-4.311,2.437-4.874,4.499c-0.562,2.062-4.124-0.937-7.31,0.937c-3.187,1.875-3.749,4.311-4.499,4.874
		c-0.75,0.562-2.812-0.375-3.936,1.125c-1.125,1.5-1.125,1.5-1.125,1.5h58.672c0,0,1.875-4.311-1.687-7.498
		C590.411,100.225,584.225,105.099,581.976,100.225z"/>
</g>
<g id="Buildings">
	<g>
		<polyline style="fill:none;stroke:#263238;stroke-linecap:round;stroke-miterlimit:10;" points="72.655,300.776 102.23,300.776 
			102.23,211.104 128.284,211.104 128.284,169.208 177.576,169.208 177.576,252.265 190.251,252.265 190.251,91.177 244.471,91.177 
			244.471,161.858 278.271,161.858 278.271,100.852 336.013,100.852 336.013,238.3 414.879,238.3 414.879,156.167 466.397,156.167 
			466.397,239.035 497.971,239.035 497.971,248.59 517.687,248.59 517.687,184.507 531.067,184.507 531.067,248.59 540.221,248.59 
			540.221,180.969 555.008,180.969 555.008,245.65 573.316,245.65 573.316,136.868 606.412,136.868 606.412,208.164 
			625.425,208.164 625.425,101.587 671.9,101.587 671.9,316.947 		"/>
		<g>
			
				<rect x="109.976" y="225.805" style="fill:none;stroke:#263238;stroke-linecap:round;stroke-miterlimit:10;" width="5.633" height="7.35"/>
			
				<rect x="119.13" y="225.805" style="fill:none;stroke:#263238;stroke-linecap:round;stroke-miterlimit:10;" width="5.633" height="7.35"/>
			
				<rect x="128.284" y="225.805" style="fill:none;stroke:#263238;stroke-linecap:round;stroke-miterlimit:10;" width="5.633" height="7.35"/>
			
				<rect x="137.438" y="225.805" style="fill:none;stroke:#263238;stroke-linecap:round;stroke-miterlimit:10;" width="5.633" height="7.35"/>
			
				<rect x="146.592" y="225.805" style="fill:none;stroke:#263238;stroke-linecap:round;stroke-miterlimit:10;" width="5.633" height="7.35"/>
			
				<rect x="155.747" y="225.805" style="fill:none;stroke:#263238;stroke-linecap:round;stroke-miterlimit:10;" width="5.633" height="7.35"/>
		</g>
		<g>
			
				<rect x="198.701" y="171.413" style="fill:none;stroke:#263238;stroke-linecap:round;stroke-miterlimit:10;" width="5.633" height="7.35"/>
			
				<rect x="207.855" y="171.413" style="fill:none;stroke:#263238;stroke-linecap:round;stroke-miterlimit:10;" width="5.633" height="7.35"/>
			
				<rect x="217.009" y="171.413" style="fill:none;stroke:#263238;stroke-linecap:round;stroke-miterlimit:10;" width="5.633" height="7.35"/>
			
				<rect x="226.163" y="171.413" style="fill:none;stroke:#263238;stroke-linecap:round;stroke-miterlimit:10;" width="5.633" height="7.35"/>
			
				<rect x="198.701" y="158.183" style="fill:none;stroke:#263238;stroke-linecap:round;stroke-miterlimit:10;" width="5.633" height="7.35"/>
			
				<rect x="207.855" y="158.183" style="fill:none;stroke:#263238;stroke-linecap:round;stroke-miterlimit:10;" width="5.633" height="7.35"/>
			
				<rect x="217.009" y="158.183" style="fill:none;stroke:#263238;stroke-linecap:round;stroke-miterlimit:10;" width="5.633" height="7.35"/>
			
				<rect x="226.163" y="158.183" style="fill:none;stroke:#263238;stroke-linecap:round;stroke-miterlimit:10;" width="5.633" height="7.35"/>
			
				<rect x="198.701" y="144.953" style="fill:none;stroke:#263238;stroke-linecap:round;stroke-miterlimit:10;" width="5.633" height="7.35"/>
			
				<rect x="207.855" y="144.953" style="fill:none;stroke:#263238;stroke-linecap:round;stroke-miterlimit:10;" width="5.633" height="7.35"/>
			
				<rect x="217.009" y="144.953" style="fill:none;stroke:#263238;stroke-linecap:round;stroke-miterlimit:10;" width="5.633" height="7.35"/>
			
				<rect x="226.163" y="144.953" style="fill:none;stroke:#263238;stroke-linecap:round;stroke-miterlimit:10;" width="5.633" height="7.35"/>
			
				<rect x="198.701" y="131.723" style="fill:none;stroke:#263238;stroke-linecap:round;stroke-miterlimit:10;" width="5.633" height="7.35"/>
			
				<rect x="207.855" y="131.723" style="fill:none;stroke:#263238;stroke-linecap:round;stroke-miterlimit:10;" width="5.633" height="7.35"/>
			
				<rect x="217.009" y="131.723" style="fill:none;stroke:#263238;stroke-linecap:round;stroke-miterlimit:10;" width="5.633" height="7.35"/>
			
				<rect x="226.163" y="131.723" style="fill:none;stroke:#263238;stroke-linecap:round;stroke-miterlimit:10;" width="5.633" height="7.35"/>
			
				<rect x="198.701" y="118.493" style="fill:none;stroke:#263238;stroke-linecap:round;stroke-miterlimit:10;" width="5.633" height="7.35"/>
			
				<rect x="207.855" y="118.493" style="fill:none;stroke:#263238;stroke-linecap:round;stroke-miterlimit:10;" width="5.633" height="7.35"/>
			
				<rect x="217.009" y="118.493" style="fill:none;stroke:#263238;stroke-linecap:round;stroke-miterlimit:10;" width="5.633" height="7.35"/>
			
				<rect x="226.163" y="118.493" style="fill:none;stroke:#263238;stroke-linecap:round;stroke-miterlimit:10;" width="5.633" height="7.35"/>
			
				<rect x="235.317" y="171.413" style="fill:none;stroke:#263238;stroke-linecap:round;stroke-miterlimit:10;" width="5.633" height="7.35"/>
			
				<rect x="244.471" y="171.413" style="fill:none;stroke:#263238;stroke-linecap:round;stroke-miterlimit:10;" width="5.633" height="7.35"/>
		</g>
		<g>
			
				<rect x="198.701" y="186.114" style="fill:none;stroke:#263238;stroke-linecap:round;stroke-miterlimit:10;" width="5.633" height="7.35"/>
			
				<rect x="207.855" y="186.114" style="fill:none;stroke:#263238;stroke-linecap:round;stroke-miterlimit:10;" width="5.633" height="7.35"/>
			
				<rect x="217.009" y="186.114" style="fill:none;stroke:#263238;stroke-linecap:round;stroke-miterlimit:10;" width="5.633" height="7.35"/>
			
				<rect x="226.163" y="186.114" style="fill:none;stroke:#263238;stroke-linecap:round;stroke-miterlimit:10;" width="5.633" height="7.35"/>
			
				<rect x="235.317" y="186.114" style="fill:none;stroke:#263238;stroke-linecap:round;stroke-miterlimit:10;" width="5.633" height="7.35"/>
			
				<rect x="244.471" y="186.114" style="fill:none;stroke:#263238;stroke-linecap:round;stroke-miterlimit:10;" width="5.633" height="7.35"/>
		</g>
		<g>
			
				<rect x="109.976" y="241.24" style="fill:none;stroke:#263238;stroke-linecap:round;stroke-miterlimit:10;" width="5.633" height="7.35"/>
			
				<rect x="119.13" y="241.24" style="fill:none;stroke:#263238;stroke-linecap:round;stroke-miterlimit:10;" width="5.633" height="7.35"/>
			
				<rect x="128.284" y="241.24" style="fill:none;stroke:#263238;stroke-linecap:round;stroke-miterlimit:10;" width="5.633" height="7.35"/>
			
				<rect x="137.438" y="241.24" style="fill:none;stroke:#263238;stroke-linecap:round;stroke-miterlimit:10;" width="5.633" height="7.35"/>
			
				<rect x="146.592" y="241.24" style="fill:none;stroke:#263238;stroke-linecap:round;stroke-miterlimit:10;" width="5.633" height="7.35"/>
			
				<rect x="155.747" y="241.24" style="fill:none;stroke:#263238;stroke-linecap:round;stroke-miterlimit:10;" width="5.633" height="7.35"/>
		</g>
		<g>
			
				<rect x="109.976" y="256.675" style="fill:none;stroke:#263238;stroke-linecap:round;stroke-miterlimit:10;" width="5.633" height="7.35"/>
			
				<rect x="119.13" y="256.675" style="fill:none;stroke:#263238;stroke-linecap:round;stroke-miterlimit:10;" width="5.633" height="7.35"/>
			
				<rect x="128.284" y="256.675" style="fill:none;stroke:#263238;stroke-linecap:round;stroke-miterlimit:10;" width="5.633" height="7.35"/>
			
				<rect x="137.438" y="256.675" style="fill:none;stroke:#263238;stroke-linecap:round;stroke-miterlimit:10;" width="5.633" height="7.35"/>
			
				<rect x="146.592" y="256.675" style="fill:none;stroke:#263238;stroke-linecap:round;stroke-miterlimit:10;" width="5.633" height="7.35"/>
			
				<rect x="155.747" y="256.675" style="fill:none;stroke:#263238;stroke-linecap:round;stroke-miterlimit:10;" width="5.633" height="7.35"/>
		</g>
		<g>
			
				<rect x="109.976" y="272.111" style="fill:none;stroke:#263238;stroke-linecap:round;stroke-miterlimit:10;" width="5.633" height="7.35"/>
			
				<rect x="119.13" y="272.111" style="fill:none;stroke:#263238;stroke-linecap:round;stroke-miterlimit:10;" width="5.633" height="7.35"/>
			
				<rect x="128.284" y="272.111" style="fill:none;stroke:#263238;stroke-linecap:round;stroke-miterlimit:10;" width="5.633" height="7.35"/>
			
				<rect x="137.438" y="272.111" style="fill:none;stroke:#263238;stroke-linecap:round;stroke-miterlimit:10;" width="5.633" height="7.35"/>
			
				<rect x="146.592" y="272.111" style="fill:none;stroke:#263238;stroke-linecap:round;stroke-miterlimit:10;" width="5.633" height="7.35"/>
			
				<rect x="155.747" y="272.111" style="fill:none;stroke:#263238;stroke-linecap:round;stroke-miterlimit:10;" width="5.633" height="7.35"/>
		</g>
		<g>
			
				<rect x="109.976" y="287.546" style="fill:none;stroke:#263238;stroke-linecap:round;stroke-miterlimit:10;" width="5.633" height="7.35"/>
			
				<rect x="119.13" y="287.546" style="fill:none;stroke:#263238;stroke-linecap:round;stroke-miterlimit:10;" width="5.633" height="7.35"/>
			
				<rect x="128.284" y="287.546" style="fill:none;stroke:#263238;stroke-linecap:round;stroke-miterlimit:10;" width="5.633" height="7.35"/>
			
				<rect x="137.438" y="287.546" style="fill:none;stroke:#263238;stroke-linecap:round;stroke-miterlimit:10;" width="5.633" height="7.35"/>
			
				<rect x="146.592" y="287.546" style="fill:none;stroke:#263238;stroke-linecap:round;stroke-miterlimit:10;" width="5.633" height="7.35"/>
			
				<rect x="155.747" y="287.546" style="fill:none;stroke:#263238;stroke-linecap:round;stroke-miterlimit:10;" width="5.633" height="7.35"/>
		</g>
		
			<rect x="643.029" y="117.022" style="fill:none;stroke:#263238;stroke-linecap:round;stroke-miterlimit:10;" width="5.633" height="7.35"/>
		
			<rect x="652.183" y="117.022" style="fill:none;stroke:#263238;stroke-linecap:round;stroke-miterlimit:10;" width="5.633" height="7.35"/>
		
			<rect x="661.337" y="117.022" style="fill:none;stroke:#263238;stroke-linecap:round;stroke-miterlimit:10;" width="5.633" height="7.35"/>
		
			<rect x="643.029" y="135.398" style="fill:none;stroke:#263238;stroke-linecap:round;stroke-miterlimit:10;" width="5.633" height="7.35"/>
		
			<rect x="652.183" y="135.398" style="fill:none;stroke:#263238;stroke-linecap:round;stroke-miterlimit:10;" width="5.633" height="7.35"/>
		
			<rect x="661.337" y="135.398" style="fill:none;stroke:#263238;stroke-linecap:round;stroke-miterlimit:10;" width="5.633" height="7.35"/>
		
			<rect x="643.029" y="153.773" style="fill:none;stroke:#263238;stroke-linecap:round;stroke-miterlimit:10;" width="5.633" height="7.35"/>
		
			<rect x="652.183" y="153.773" style="fill:none;stroke:#263238;stroke-linecap:round;stroke-miterlimit:10;" width="5.633" height="7.35"/>
		
			<rect x="661.337" y="153.773" style="fill:none;stroke:#263238;stroke-linecap:round;stroke-miterlimit:10;" width="5.633" height="7.35"/>
		
			<rect x="643.029" y="172.148" style="fill:none;stroke:#263238;stroke-linecap:round;stroke-miterlimit:10;" width="5.633" height="7.35"/>
		
			<rect x="652.183" y="172.148" style="fill:none;stroke:#263238;stroke-linecap:round;stroke-miterlimit:10;" width="5.633" height="7.35"/>
		
			<rect x="661.337" y="172.148" style="fill:none;stroke:#263238;stroke-linecap:round;stroke-miterlimit:10;" width="5.633" height="7.35"/>
		
			<rect x="643.029" y="190.524" style="fill:none;stroke:#263238;stroke-linecap:round;stroke-miterlimit:10;" width="5.633" height="7.35"/>
		
			<rect x="652.183" y="190.524" style="fill:none;stroke:#263238;stroke-linecap:round;stroke-miterlimit:10;" width="5.633" height="7.35"/>
		
			<rect x="661.337" y="190.524" style="fill:none;stroke:#263238;stroke-linecap:round;stroke-miterlimit:10;" width="5.633" height="7.35"/>
		
			<rect x="643.029" y="208.899" style="fill:none;stroke:#263238;stroke-linecap:round;stroke-miterlimit:10;" width="5.633" height="7.35"/>
		
			<rect x="652.183" y="208.899" style="fill:none;stroke:#263238;stroke-linecap:round;stroke-miterlimit:10;" width="5.633" height="7.35"/>
		
			<rect x="661.337" y="208.899" style="fill:none;stroke:#263238;stroke-linecap:round;stroke-miterlimit:10;" width="5.633" height="7.35"/>
		
			<rect x="643.029" y="227.275" style="fill:none;stroke:#263238;stroke-linecap:round;stroke-miterlimit:10;" width="5.633" height="7.35"/>
		
			<rect x="652.183" y="227.275" style="fill:none;stroke:#263238;stroke-linecap:round;stroke-miterlimit:10;" width="5.633" height="7.35"/>
		
			<rect x="661.337" y="227.275" style="fill:none;stroke:#263238;stroke-linecap:round;stroke-miterlimit:10;" width="5.633" height="7.35"/>
		
			<rect x="643.029" y="245.65" style="fill:none;stroke:#263238;stroke-linecap:round;stroke-miterlimit:10;" width="5.633" height="7.35"/>
		
			<rect x="652.183" y="245.65" style="fill:none;stroke:#263238;stroke-linecap:round;stroke-miterlimit:10;" width="5.633" height="7.35"/>
		
			<rect x="661.337" y="245.65" style="fill:none;stroke:#263238;stroke-linecap:round;stroke-miterlimit:10;" width="5.633" height="7.35"/>
		
			<rect x="643.029" y="264.025" style="fill:none;stroke:#263238;stroke-linecap:round;stroke-miterlimit:10;" width="5.633" height="7.35"/>
		
			<rect x="652.183" y="264.025" style="fill:none;stroke:#263238;stroke-linecap:round;stroke-miterlimit:10;" width="5.633" height="7.35"/>
		
			<rect x="583.096" y="153.773" style="fill:none;stroke:#263238;stroke-linecap:round;stroke-miterlimit:10;" width="5.633" height="7.35"/>
		
			<rect x="592.25" y="153.773" style="fill:none;stroke:#263238;stroke-linecap:round;stroke-miterlimit:10;" width="5.633" height="7.35"/>
		
			<rect x="583.096" y="172.148" style="fill:none;stroke:#263238;stroke-linecap:round;stroke-miterlimit:10;" width="5.633" height="7.35"/>
		
			<rect x="592.25" y="172.148" style="fill:none;stroke:#263238;stroke-linecap:round;stroke-miterlimit:10;" width="5.633" height="7.35"/>
		
			<rect x="583.096" y="190.524" style="fill:none;stroke:#263238;stroke-linecap:round;stroke-miterlimit:10;" width="5.633" height="7.35"/>
		
			<rect x="592.25" y="190.524" style="fill:none;stroke:#263238;stroke-linecap:round;stroke-miterlimit:10;" width="5.633" height="7.35"/>
		
			<rect x="583.096" y="208.899" style="fill:none;stroke:#263238;stroke-linecap:round;stroke-miterlimit:10;" width="5.633" height="7.35"/>
		
			<rect x="592.25" y="208.899" style="fill:none;stroke:#263238;stroke-linecap:round;stroke-miterlimit:10;" width="5.633" height="7.35"/>
		
			<rect x="583.096" y="227.275" style="fill:none;stroke:#263238;stroke-linecap:round;stroke-miterlimit:10;" width="5.633" height="7.35"/>
		
			<rect x="592.25" y="227.275" style="fill:none;stroke:#263238;stroke-linecap:round;stroke-miterlimit:10;" width="5.633" height="7.35"/>
		
			<rect x="583.096" y="245.65" style="fill:none;stroke:#263238;stroke-linecap:round;stroke-miterlimit:10;" width="5.633" height="7.35"/>
		
			<rect x="592.25" y="245.65" style="fill:none;stroke:#263238;stroke-linecap:round;stroke-miterlimit:10;" width="5.633" height="7.35"/>
		
			<rect x="583.096" y="264.025" style="fill:none;stroke:#263238;stroke-linecap:round;stroke-miterlimit:10;" width="5.633" height="7.35"/>
		
			<rect x="592.25" y="264.025" style="fill:none;stroke:#263238;stroke-linecap:round;stroke-miterlimit:10;" width="5.633" height="7.35"/>
		
			<rect x="421.76" y="172.148" style="fill:none;stroke:#263238;stroke-linecap:round;stroke-miterlimit:10;" width="5.633" height="7.35"/>
		
			<rect x="430.914" y="172.148" style="fill:none;stroke:#263238;stroke-linecap:round;stroke-miterlimit:10;" width="5.633" height="7.35"/>
		
			<rect x="421.76" y="190.524" style="fill:none;stroke:#263238;stroke-linecap:round;stroke-miterlimit:10;" width="5.633" height="7.35"/>
		
			<rect x="430.914" y="190.524" style="fill:none;stroke:#263238;stroke-linecap:round;stroke-miterlimit:10;" width="5.633" height="7.35"/>
		
			<rect x="421.76" y="208.899" style="fill:none;stroke:#263238;stroke-linecap:round;stroke-miterlimit:10;" width="5.633" height="7.35"/>
		
			<rect x="430.914" y="208.899" style="fill:none;stroke:#263238;stroke-linecap:round;stroke-miterlimit:10;" width="5.633" height="7.35"/>
		
			<rect x="421.76" y="227.275" style="fill:none;stroke:#263238;stroke-linecap:round;stroke-miterlimit:10;" width="5.633" height="7.35"/>
		
			<rect x="430.914" y="227.275" style="fill:none;stroke:#263238;stroke-linecap:round;stroke-miterlimit:10;" width="5.633" height="7.35"/>
		
			<rect x="421.76" y="245.65" style="fill:none;stroke:#263238;stroke-linecap:round;stroke-miterlimit:10;" width="5.633" height="7.35"/>
		
			<rect x="430.914" y="245.65" style="fill:none;stroke:#263238;stroke-linecap:round;stroke-miterlimit:10;" width="5.633" height="7.35"/>
		
			<rect x="421.76" y="264.025" style="fill:none;stroke:#263238;stroke-linecap:round;stroke-miterlimit:10;" width="5.633" height="7.35"/>
		
			<rect x="430.914" y="264.025" style="fill:none;stroke:#263238;stroke-linecap:round;stroke-miterlimit:10;" width="5.633" height="7.35"/>
		
			<rect x="442.49" y="172.148" style="fill:none;stroke:#263238;stroke-linecap:round;stroke-miterlimit:10;" width="5.633" height="7.35"/>
		
			<rect x="451.644" y="172.148" style="fill:none;stroke:#263238;stroke-linecap:round;stroke-miterlimit:10;" width="5.633" height="7.35"/>
		
			<rect x="442.49" y="190.524" style="fill:none;stroke:#263238;stroke-linecap:round;stroke-miterlimit:10;" width="5.633" height="7.35"/>
		
			<rect x="451.644" y="190.524" style="fill:none;stroke:#263238;stroke-linecap:round;stroke-miterlimit:10;" width="5.633" height="7.35"/>
		
			<rect x="442.49" y="208.899" style="fill:none;stroke:#263238;stroke-linecap:round;stroke-miterlimit:10;" width="5.633" height="7.35"/>
		
			<rect x="451.644" y="208.899" style="fill:none;stroke:#263238;stroke-linecap:round;stroke-miterlimit:10;" width="5.633" height="7.35"/>
		
			<rect x="442.49" y="227.275" style="fill:none;stroke:#263238;stroke-linecap:round;stroke-miterlimit:10;" width="5.633" height="7.35"/>
		
			<rect x="451.644" y="227.275" style="fill:none;stroke:#263238;stroke-linecap:round;stroke-miterlimit:10;" width="5.633" height="7.35"/>
		
			<rect x="442.49" y="245.65" style="fill:none;stroke:#263238;stroke-linecap:round;stroke-miterlimit:10;" width="5.633" height="7.35"/>
		
			<rect x="451.644" y="245.65" style="fill:none;stroke:#263238;stroke-linecap:round;stroke-miterlimit:10;" width="5.633" height="7.35"/>
		
			<rect x="442.49" y="264.025" style="fill:none;stroke:#263238;stroke-linecap:round;stroke-miterlimit:10;" width="5.633" height="7.35"/>
		
			<rect x="451.644" y="264.025" style="fill:none;stroke:#263238;stroke-linecap:round;stroke-miterlimit:10;" width="5.633" height="7.35"/>
		
			<rect x="298.595" y="117.022" style="fill:none;stroke:#263238;stroke-linecap:round;stroke-miterlimit:10;" width="5.633" height="7.35"/>
		
			<rect x="307.749" y="117.022" style="fill:none;stroke:#263238;stroke-linecap:round;stroke-miterlimit:10;" width="5.633" height="7.35"/>
		
			<rect x="298.595" y="135.398" style="fill:none;stroke:#263238;stroke-linecap:round;stroke-miterlimit:10;" width="5.633" height="7.35"/>
		
			<rect x="307.749" y="135.398" style="fill:none;stroke:#263238;stroke-linecap:round;stroke-miterlimit:10;" width="5.633" height="7.35"/>
		
			<rect x="298.595" y="153.773" style="fill:none;stroke:#263238;stroke-linecap:round;stroke-miterlimit:10;" width="5.633" height="7.35"/>
		
			<rect x="307.749" y="153.773" style="fill:none;stroke:#263238;stroke-linecap:round;stroke-miterlimit:10;" width="5.633" height="7.35"/>
		
			<rect x="298.595" y="172.148" style="fill:none;stroke:#263238;stroke-linecap:round;stroke-miterlimit:10;" width="5.633" height="7.35"/>
		
			<rect x="307.749" y="172.148" style="fill:none;stroke:#263238;stroke-linecap:round;stroke-miterlimit:10;" width="5.633" height="7.35"/>
		
			<rect x="298.595" y="190.524" style="fill:none;stroke:#263238;stroke-linecap:round;stroke-miterlimit:10;" width="5.633" height="7.35"/>
		
			<rect x="307.749" y="190.524" style="fill:none;stroke:#263238;stroke-linecap:round;stroke-miterlimit:10;" width="5.633" height="7.35"/>
		
			<rect x="298.595" y="208.899" style="fill:none;stroke:#263238;stroke-linecap:round;stroke-miterlimit:10;" width="5.633" height="7.35"/>
		
			<rect x="307.749" y="208.899" style="fill:none;stroke:#263238;stroke-linecap:round;stroke-miterlimit:10;" width="5.633" height="7.35"/>
		
			<rect x="298.595" y="227.275" style="fill:none;stroke:#263238;stroke-linecap:round;stroke-miterlimit:10;" width="5.633" height="7.35"/>
		
			<rect x="307.749" y="227.275" style="fill:none;stroke:#263238;stroke-linecap:round;stroke-miterlimit:10;" width="5.633" height="7.35"/>
		
			<rect x="298.595" y="245.65" style="fill:none;stroke:#263238;stroke-linecap:round;stroke-miterlimit:10;" width="5.633" height="7.35"/>
		
			<rect x="307.749" y="245.65" style="fill:none;stroke:#263238;stroke-linecap:round;stroke-miterlimit:10;" width="5.633" height="7.35"/>
		
			<rect x="298.595" y="264.025" style="fill:none;stroke:#263238;stroke-linecap:round;stroke-miterlimit:10;" width="5.633" height="7.35"/>
		
			<rect x="307.749" y="264.025" style="fill:none;stroke:#263238;stroke-linecap:round;stroke-miterlimit:10;" width="5.633" height="7.35"/>
		
			<rect x="661.337" y="264.025" style="fill:none;stroke:#263238;stroke-linecap:round;stroke-miterlimit:10;" width="5.633" height="7.35"/>
	</g>
</g>
<g id="Trees">
	<g>
		<path style="fill:#92E3A9;" d="M647.271,383.191c0,28.053-15.731,30.171-35.136,30.171S577,411.244,577,383.191
			c0-28.053,15.731-86.694,35.136-86.694S647.271,355.138,647.271,383.191z"/>
		<path style="opacity:0.58;fill:#FFFFFF;" d="M647.271,383.191c0,28.053-15.731,30.171-35.136,30.171S577,411.244,577,383.191
			c0-28.053,15.731-86.694,35.136-86.694S647.271,355.138,647.271,383.191z"/>
		<polygon style="fill:#263238;" points="624.016,395.919 618.204,396.32 633.342,386.115 622.531,391.58 624.016,387.31 
			619.073,393.327 613.275,396.258 612.815,376.113 615.885,368.658 612.741,372.85 612.474,361.17 622.102,348.332 
			612.407,358.258 611.82,332.549 611.301,349.004 605.124,342.114 611.201,352.165 610.379,378.229 605.001,374.712 
			600.102,366.028 602.067,372.794 592.45,366.506 610.264,381.871 607.566,467.419 614.902,467.419 613.352,399.591 
			615.046,398.449 		"/>
	</g>
	<g>
		<path style="fill:#92E3A9;" d="M733.818,331.979c0,45.109-25.295,48.515-56.499,48.515s-56.499-3.406-56.499-48.515
			c0-45.109,25.295-139.405,56.499-139.405S733.818,286.87,733.818,331.979z"/>
		<path style="opacity:0.31;fill:#FFFFFF;" d="M733.818,331.979c0,45.109-25.295,48.515-56.499,48.515s-56.499-3.406-56.499-48.515
			c0-45.109,25.295-139.405,56.499-139.405S733.818,286.87,733.818,331.979z"/>
		<polygon style="fill:#263238;" points="696.423,352.446 687.078,353.091 711.419,336.681 694.035,345.468 696.423,338.603 
			688.475,348.279 679.153,352.991 678.413,320.598 683.349,308.61 678.293,315.352 677.864,296.569 693.347,275.925 
			677.757,291.887 676.812,250.547 675.978,277.006 666.045,265.928 675.817,282.089 674.496,324 665.848,318.346 657.97,304.38 
			661.129,315.26 645.665,305.149 674.311,329.856 669.973,467.419 681.768,467.419 679.276,358.351 682,356.514 		"/>
	</g>
	<g>
		<path style="fill:#92E3A9;" d="M112.253,383.191c0,28.053,15.731,30.171,35.136,30.171s35.136-2.118,35.136-30.171
			c0-28.053-15.731-86.694-35.136-86.694S112.253,355.138,112.253,383.191z"/>
		<path style="opacity:0.58;fill:#FFFFFF;" d="M112.253,383.191c0,28.053,15.731,30.171,35.136,30.171s35.136-2.118,35.136-30.171
			c0-28.053-15.731-86.694-35.136-86.694S112.253,355.138,112.253,383.191z"/>
		<polygon style="fill:#263238;" points="135.508,395.919 141.32,396.32 126.182,386.115 136.993,391.58 135.508,387.31 
			140.451,393.327 146.248,396.258 146.709,376.113 143.639,368.658 146.783,372.85 147.05,361.17 137.422,348.332 147.117,358.258 
			147.704,332.549 148.223,349.004 154.4,342.114 148.323,352.165 149.145,378.229 154.522,374.712 159.422,366.028 
			157.457,372.794 167.074,366.506 149.26,381.871 151.957,467.419 144.622,467.419 146.172,399.591 144.478,398.449 		"/>
	</g>
	<g>
		<path style="fill:#92E3A9;" d="M26.083,332.432c0,44.959,25.211,48.353,56.31,48.353s56.31-3.395,56.31-48.353
			c0-44.959-25.211-138.939-56.31-138.939S26.083,287.473,26.083,332.432z"/>
		<path style="opacity:0.31;fill:#FFFFFF;" d="M26.083,332.432c0,44.959,25.211,48.353,56.31,48.353s56.31-3.395,56.31-48.353
			c0-44.959-25.211-138.939-56.31-138.939S26.083,287.473,26.083,332.432z"/>
		<polygon style="fill:#263238;" points="63.353,352.83 72.667,353.472 48.407,337.117 65.733,345.876 63.353,339.034 
			71.275,348.677 80.566,353.373 81.303,321.089 76.384,309.141 81.423,315.86 81.851,297.14 66.42,276.565 81.957,292.473 
			82.899,251.271 83.73,277.642 93.63,266.601 83.89,282.708 85.207,324.479 93.826,318.844 101.678,304.925 98.53,315.769 
			113.941,305.691 85.392,330.316 89.715,467.419 77.96,467.419 80.444,358.715 77.729,356.885 		"/>
	</g>
</g>
<g id="Characters">
	<g>
		<g>
			<g>
				<path style="fill:#263238;stroke:#263238;stroke-linecap:round;stroke-linejoin:round;stroke-miterlimit:10;" d="
					M394.867,224.855h-30.803c-2.206,0-3.994-1.788-3.994-3.994v-7.622c0-2.206,1.788-3.994,3.994-3.994h30.803
					c2.206,0,3.994,1.788,3.994,3.994v7.622C398.861,223.066,397.073,224.855,394.867,224.855z"/>
				
					<rect x="376.154" y="201.675" style="fill:#263238;stroke:#263238;stroke-linecap:round;stroke-linejoin:round;stroke-miterlimit:10;" width="3.784" height="11.827"/>
			</g>
			<path style="fill:#263238;stroke:#263238;stroke-linecap:round;stroke-linejoin:round;stroke-miterlimit:10;" d="
				M512.804,286.474l-13.567-10.523l-18.904-69.863l-31.464-3.879l13.611,50.556H303.37l13.611-50.556l-31.464,3.879l-19.18,70.882
				l-14.327,9.504H512.804z M452.749,206.089l23.705,1.724l15.157,62.223l-22.265-17.27h-1.196L452.749,206.089z M289.397,207.813
				l23.705-1.724l-16.597,50.301l0.567,0.195l-23.324,15.471L289.397,207.813z"/>
		</g>
		<g>
			<path style="fill:#787878;stroke:#263238;stroke-linecap:round;stroke-linejoin:round;stroke-miterlimit:10;" d="
				M351.115,289.665l-2.336-33.275c-0.555-7.904-7.128-14.032-15.051-14.032h-30.575c-7.923,0-14.496,6.128-15.051,14.032
				l-2.336,33.275H351.115z"/>
			<path style="fill:#787878;stroke:#263238;stroke-linecap:round;stroke-linejoin:round;stroke-miterlimit:10;" d="
				M471.681,289.665l-2.336-33.275c-0.555-7.904-7.128-14.032-15.051-14.032H423.72c-7.923,0-14.496,6.128-15.051,14.032
				l-2.336,33.275H471.681z"/>
		</g>
		<g>
			<g>
				<path style="fill:#263238;stroke:#263238;stroke-miterlimit:10;" d="M310.711,217.782c0,0-5.864-4.188-9.494-2.234
					c-3.63,1.955-11.169,23.176-12.286,27.923c-1.117,4.747,5.864,8.656,10.611,10.052c4.747,1.396,14.24-1.675,16.474-3.909
					C318.25,247.38,310.711,217.782,310.711,217.782z"/>
				<path style="fill:#B2B2B2;stroke:#263238;stroke-miterlimit:10;" d="M350.322,290.552c-0.359-1.126-0.57-1.825-0.57-1.825
					s-4.067-21.788-5.084-23.531c-1.017-1.743-13.654-7.408-13.654-7.408l-21.933-1.162c0,0-16.414,7.989-16.559,9.006
					c-0.077,0.54-3.217,13.179-6.147,24.921H350.322z"/>
				<path style="fill:none;stroke:#263238;stroke-miterlimit:10;" d="M298.855,274.243c1.286,3.728,2.158,6.346,2.69,9.723"/>
				<path style="fill:none;stroke:#263238;stroke-miterlimit:10;" d="M341.88,275.756c-0.701,2.396-2.466,5.576-1.939,8.139"/>
			</g>
			<g>
				<path style="fill:#263238;stroke:#263238;stroke-miterlimit:10;" d="M321.286,210.307c0,0-13.055,3.626-16.681,10.637
					c-3.626,7.011-3.868,8.582-1.813,11.967c2.055,3.385,7.132,9.428,11.846,11.846c4.714,2.417,19.703-1.088,19.703-1.088
					s4.593-2.055,6.044-5.681c1.451-3.626,4.714-8.703,2.538-14.142c-2.176-5.439-11.846-12.934-14.868-13.78
					C325.033,209.219,321.286,210.307,321.286,210.307z"/>
				<g>
					<path style="fill:#FFFFFF;stroke:#263238;stroke-miterlimit:10;" d="M330.788,219.478c0,0-6.511,4.007-9.85,6.344
						c-3.339,2.337-7.345,3.673-7.345,3.673s-3.005,1.336-2.337,4.841c0.668,3.506,1.932,15.618,1.932,15.618l-2.266,4.916
						l9.683,10.684l7.679-10.016l0.835-5.175c0,0,7.011-4.341,7.178-5.342c0.167-1.002,2.17-15.692,2.003-17.195
						C338.133,226.323,330.788,219.478,330.788,219.478z"/>
					<path style="fill:none;stroke:#263238;stroke-linecap:round;stroke-linejoin:round;stroke-miterlimit:10;" d="M331.923,229.767
						c0,0-0.363,3.264-0.363,3.747c0,0.483,2.901,3.022,1.813,3.989c-1.088,0.967-3.264,1.572-3.264,1.572"/>
					<path style="fill:none;stroke:#263238;stroke-linecap:round;stroke-linejoin:round;stroke-miterlimit:10;" d="M330.473,242.097
						c0,0-1.209,1.33-3.868-1.451"/>
					<path style="fill:#263238;stroke:#263238;stroke-linecap:round;stroke-linejoin:round;stroke-miterlimit:10;" d="
						M329.118,250.363c0,0-2.755-0.288-3.843-1.013c-1.088-0.725-4.23-3.143-4.23-3.143l6.164,10.637l1.074-1.306L329.118,250.363z"
						/>
					<path style="fill:#FFFFFF;stroke:#263238;stroke-miterlimit:10;" d="M314.88,232.668c0,0-2.297-6.89-4.956-3.022
						c-2.659,3.868,1.571,9.307,3.626,9.186"/>
					<ellipse style="fill:#263238;" cx="325.94" cy="232.306" rx="1.027" ry="1.451"/>
					<ellipse style="fill:#263238;" cx="335.005" cy="232.306" rx="1.027" ry="1.451"/>
					<path style="fill:none;stroke:#263238;stroke-linecap:round;stroke-linejoin:round;stroke-miterlimit:10;" d="M323.22,229.163
						c0,0,2.176-2.176,5.077-0.484"/>
					<path style="fill:none;stroke:#263238;stroke-linecap:round;stroke-linejoin:round;stroke-miterlimit:10;" d="M333.011,228.438
						c0,0,3.264-1.33,3.989,1.209"/>
				</g>
				<polygon style="fill:#FFFFFF;stroke:#263238;stroke-miterlimit:10;" points="310.891,251.162 319.352,261.92 313.55,268.206 
					307.023,256.481 				"/>
				<polyline style="fill:#263238;stroke:#263238;stroke-linecap:round;stroke-linejoin:round;stroke-miterlimit:10;" points="
					283.688,209.689 323.07,289.245 312.478,289.245 280.748,212.119 				"/>
				<polygon style="fill:#FFFFFF;stroke:#263238;stroke-miterlimit:10;" points="319.352,261.92 320.604,265.554 317.66,264.096 
									"/>
				<polygon style="fill:#FFFFFF;stroke:#263238;stroke-miterlimit:10;" points="322.374,260.107 326.484,268.206 332.769,257.569 
					328.539,254.184 				"/>
				<polygon style="fill:#FFFFFF;stroke:#263238;stroke-miterlimit:10;" points="322.374,260.107 320.604,265.554 323.583,262.645 
									"/>
			</g>
		</g>
		<g>
			<g>
				<path style="fill:#FFFFFF;stroke:#263238;stroke-linecap:round;stroke-linejoin:round;stroke-miterlimit:10;" d="
					M492.521,296.864c0.69-1.529,4.183-9.509,2.928-11.619c-7.116-11.967-9.206-4.038-11.751-10.026
					c-4.276-10.06-7.892-17.069-9.428-18.12c-2.97-2.032-22.512-5.784-22.512-5.784l-23.919-0.625c0,0-20.636,8.442-22.043,10.318
					c-0.604,0.805-5.04,6.104-8.129,13.565c-0.314,0.759-7.446,6.456-7.762,7.223c-3.366,8.167-0.241,13.833,0.553,15.069H492.521z"
					/>
				<path style="fill:none;stroke:#263238;stroke-linecap:round;stroke-linejoin:round;stroke-miterlimit:10;" d="M413.092,269.504
					c0.236,8.252,0.236,16.132,0.581,24.269"/>
				
					<line style="fill:none;stroke:#263238;stroke-linecap:round;stroke-linejoin:round;stroke-miterlimit:10;" x1="412.974" y1="264.543" x2="413.033" y2="267.016"/>
				<path style="fill:none;stroke:#263238;stroke-linecap:round;stroke-linejoin:round;stroke-miterlimit:10;" d="M467.99,268.704
					c-0.477,6.344-0.953,12.689-1.43,19.033c-0.152,2.023-0.304,4.046-0.456,6.069"/>
				
					<line style="fill:none;stroke:#263238;stroke-linecap:round;stroke-linejoin:round;stroke-miterlimit:10;" x1="468.337" y1="264.079" x2="468.211" y2="265.759"/>
			</g>
			<path style="fill:#92E3A9;stroke:#263238;stroke-linecap:round;stroke-linejoin:round;stroke-miterlimit:10;" d="
				M434.342,277.733c0.24,4.398-0.237,13.296-0.611,19.131h15.977c-0.765-6.942-2-18.169-2.255-20.63
				c-0.375-3.621-5.245-13.986-5.245-13.986l3.122-4.121l-5.619-5.869l-3.621,5.619l2.872,4.745
				C438.962,262.623,433.967,270.865,434.342,277.733z"/>
			<polygon style="fill:#FFFFFF;stroke:#263238;stroke-linecap:round;stroke-linejoin:round;stroke-miterlimit:10;" points="
				430.97,241.52 429.971,249.012 440.585,254.881 450.076,249.137 449.701,243.643 			"/>
			<polygon style="fill:#263238;stroke:#263238;stroke-linecap:round;stroke-linejoin:round;stroke-miterlimit:10;" points="
				429.971,249.012 433.537,250.984 439.573,248.46 432.846,241.733 430.97,241.52 			"/>
			<g>
				<path style="fill:#FFFFFF;stroke:#263238;stroke-linecap:round;stroke-linejoin:round;stroke-miterlimit:10;" d="
					M430.226,211.887c0,0-3.53,2.521-3.782,6.177c-0.252,3.656,1.639,20.55,3.656,24.332c2.017,3.782,4.412,6.808,9.329,7.69
					c4.917,0.882,10.716-4.034,11.346-6.304c0.63-2.269,3.026-13.994,3.026-18.406c0-4.412,0.504-9.455-3.53-13.111
					c-4.034-3.656-10.59-4.412-13.742-3.782C433.378,209.114,430.226,211.887,430.226,211.887z"/>
				<path style="fill:#263238;stroke:#263238;stroke-linecap:round;stroke-linejoin:round;stroke-miterlimit:10;" d="
					M450.272,212.266c-4.034-3.656-10.59-4.412-13.742-3.782c-3.152,0.63-6.304,3.404-6.304,3.404s-3.53,2.521-3.782,6.177
					c-0.123,1.781,0.264,6.703,0.925,11.72c0.257,0.044,0.588-0.077,0.588-1.004c0-1.513-0.883-2.395,0.252-3.656
					c1.135-1.261,2.9-3.026,3.908-4.665s0.756-4.16,0.756-4.16s2.269,1.891,6.808,2.395c4.539,0.504,9.455,0.504,10.212,0.63
					c0.756,0.126-0.252,0.882,0.882,2.395c1.135,1.513,1.639,2.269,1.765,3.026c0.109,0.652,0.686,4.301,0.843,5.295
					c0.253-1.854,0.418-3.511,0.418-4.665C453.802,220.964,454.306,215.922,450.272,212.266z"/>
				<path style="fill:none;stroke:#263238;stroke-linecap:round;stroke-linejoin:round;stroke-miterlimit:10;" d="M437.917,235.589
					c0,0,2.143,1.387,3.53,1.135c1.387-0.252,2.774-1.261,2.774-1.261"/>
				<path style="fill:none;stroke:#263238;stroke-linecap:round;stroke-linejoin:round;stroke-miterlimit:10;" d="M444.346,226.133
					c0,0,2.9-2.143,5.799,0.252"/>
				<path style="fill:none;stroke:#263238;stroke-linecap:round;stroke-linejoin:round;stroke-miterlimit:10;" d="M438.295,226.385
					c0,0-3.404-2.269-5.799,0.504"/>
				<path style="fill:#263238;" d="M436.404,228.781c0,0.627-0.31,1.135-0.693,1.135c-0.383,0-0.693-0.508-0.693-1.135
					c0-0.627,0.31-1.135,0.693-1.135C436.093,227.646,436.404,228.154,436.404,228.781z"/>
				<path style="fill:#263238;" d="M446.931,228.781c0,0.627-0.31,1.135-0.693,1.135c-0.383,0-0.693-0.508-0.693-1.135
					c0-0.627,0.311-1.135,0.693-1.135C446.62,227.646,446.931,228.154,446.931,228.781z"/>
				<path style="fill:none;stroke:#263238;stroke-linecap:round;stroke-linejoin:round;stroke-miterlimit:10;" d="M435.647,239.749
					c0,0,4.917,2.143,9.833-0.126"/>
				<path style="fill:#FFFFFF;stroke:#263238;stroke-linecap:round;stroke-linejoin:round;stroke-miterlimit:10;" d="
					M427.201,227.52c0,0-2.017-1.639-2.774,1.261c-0.756,2.9,3.908,6.682,3.908,6.682L427.201,227.52z"/>
				<path style="fill:#FFFFFF;stroke:#263238;stroke-linecap:round;stroke-linejoin:round;stroke-miterlimit:10;" d="
					M453.676,228.024c0,0,1.135-1.891,2.143,0.504c1.009,2.395-3.53,7.69-3.53,7.69L453.676,228.024z"/>
				<path style="fill:#263238;stroke:#263238;stroke-linecap:round;stroke-linejoin:round;stroke-miterlimit:10;" d="
					M441.14,237.823c0,0-5.997-0.848-7.258,1.169c-1.09,1.744-0.482,6.595,0.517,8.936c1.337,1.03,2.958,1.786,5.03,2.158
					c2.444,0.439,5.105-0.556,7.242-1.946c0.498-0.707,1.213-2.501,0.953-6.88C447.413,237.718,445.882,237.374,441.14,237.823z
					 M445.651,246.01c0,0-1.956,1.504-4.775,1.415c-1.018-0.032-4.281-0.09-5.413-1.239c-1.132-1.148-2.038-5.478-0.906-6.891
					c1.132-1.414,6.517-0.819,6.517-0.819c4.258-0.315,5.633-0.074,5.822,2.41C447.244,245.452,445.651,246.01,445.651,246.01z"/>
				<path style="fill:#263238;stroke:#263238;stroke-linecap:round;stroke-linejoin:round;stroke-miterlimit:10;" d="
					M442.549,245.367c0,0.511-0.73,2.059-1.63,2.059c-0.9,0-1.63-1.548-1.63-2.059c0-0.511,0.73-0.925,1.63-0.925
					C441.82,244.442,442.549,244.856,442.549,245.367z"/>
			</g>
			<polygon style="fill:#FFFFFF;stroke:#263238;stroke-linecap:round;stroke-linejoin:round;stroke-miterlimit:10;" points="
				440.585,254.881 431.47,263.373 426.6,250.511 429.721,248.013 			"/>
			<polygon style="fill:#FFFFFF;stroke:#263238;stroke-linecap:round;stroke-linejoin:round;stroke-miterlimit:10;" points="
				440.585,254.881 447.953,264.496 452.823,251.76 450.076,249.137 			"/>
			<polyline style="fill:#263238;stroke:#263238;stroke-linecap:round;stroke-linejoin:round;stroke-miterlimit:10;" points="
				480.265,209.689 422.022,289.245 432.614,289.245 483.205,212.119 			"/>
			<path style="fill:#FFFFFF;stroke:#263238;stroke-linecap:round;stroke-linejoin:round;stroke-miterlimit:10;" d="
				M386.698,296.864h14.711c1.414-1.645,2.773-3.512,3.135-3.965c0.625-0.782,2.345-3.596,1.251-7.504
				c-1.094-3.908-4.69-6.097-4.69-6.097l-3.908,0.782c0,0-3.283-1.094-5.785,0c-2.501,1.094-5.784,4.846-7.035,9.224
				C383.376,292.805,384.977,295.403,386.698,296.864z"/>
			<path style="fill:none;stroke:#263238;stroke-linecap:round;stroke-linejoin:round;stroke-miterlimit:10;" d="M396.047,280.824
				c-2.736,3.752-4.661,8.655-1.769,12.865"/>
			<path style="fill:#FFFFFF;stroke:#263238;stroke-linecap:round;stroke-linejoin:round;stroke-miterlimit:10;" d="
				M418.364,275.434c0,0,2.587-0.647,3.45-0.108c0.862,0.539,1.833,2.372,2.264,3.342c0.431,0.97-0.216,1.833-1.617,2.048
				c-1.401,0.216-3.234-1.617-3.234-1.617L418.364,275.434z"/>
			<polygon style="fill:#263238;stroke:#263238;stroke-linecap:round;stroke-linejoin:round;stroke-miterlimit:10;" points="
				471.847,281.28 469.758,278.595 448.128,292.17 432.614,292.17 411.133,279.938 409.343,281.877 419.908,296.864 
				459.726,296.864 			"/>
			<path style="fill:#263238;stroke:#263238;stroke-linecap:round;stroke-linejoin:round;stroke-miterlimit:10;" d="
				M408.276,296.864c0.953-16.968,15-30.438,32.206-30.438c17.207,0,31.254,13.47,32.206,30.438h5.148
				c-0.959-19.811-17.305-35.583-37.354-35.583c-20.048,0-36.395,15.772-37.354,35.583H408.276z"/>
			<g>
				<path style="fill:#FFFFFF;stroke:#263238;stroke-linecap:round;stroke-linejoin:round;stroke-miterlimit:10;" d="
					M404.241,272.847c0,0-6.576,9.487-6.792,12.829c-0.216,3.342,1.294,6.792,4.528,7.331c3.234,0.539,3.773-1.509,3.773-1.509
					s7.008,1.509,7.331,1.509c0.323,0,1.078-0.323,1.294-1.078c0.216-0.755,0.755-1.725,0.755-1.725s0.97-0.647,1.617-1.833
					c0.647-1.186,0.862-1.725,0.862-1.725s1.186-1.725,1.402-2.48c0.216-0.755,0.216-2.156,0.216-2.156s1.078-1.402,0.97-2.911
					c-0.108-1.509-1.617-4.205-4.744-5.93c-3.126-1.725-7.547-2.48-9.056-2.264C404.888,271.122,404.241,272.847,404.241,272.847z"
					/>
				
					<line style="fill:none;stroke:#263238;stroke-linecap:round;stroke-linejoin:round;stroke-miterlimit:10;" x1="410.366" y1="276.922" x2="419.227" y2="282.01"/>
				
					<line style="fill:none;stroke:#263238;stroke-linecap:round;stroke-linejoin:round;stroke-miterlimit:10;" x1="408.338" y1="275.757" x2="409.474" y2="276.41"/>
				
					<line style="fill:none;stroke:#263238;stroke-linecap:round;stroke-linejoin:round;stroke-miterlimit:10;" x1="405.75" y1="280.501" x2="417.61" y2="286.646"/>
				
					<line style="fill:none;stroke:#263238;stroke-linecap:round;stroke-linejoin:round;stroke-miterlimit:10;" x1="407.364" y1="286.762" x2="415.13" y2="290.204"/>
				
					<line style="fill:none;stroke:#263238;stroke-linecap:round;stroke-linejoin:round;stroke-miterlimit:10;" x1="404.672" y1="285.568" x2="406.213" y2="286.251"/>
			</g>
			<path style="fill:#FFFFFF;stroke:#263238;stroke-linecap:round;stroke-linejoin:round;stroke-miterlimit:10;" d="
				M480.218,296.864h14.711c1.721-1.461,3.322-4.059,2.321-7.561c-1.251-4.377-4.534-8.129-7.035-9.224
				c-2.501-1.094-5.784,0-5.784,0l-3.908-0.782c0,0-3.596,2.189-4.69,6.097c-1.094,3.908,0.625,6.722,1.251,7.504
				C477.445,293.352,478.804,295.22,480.218,296.864z"/>
			<path style="fill:none;stroke:#263238;stroke-linecap:round;stroke-linejoin:round;stroke-miterlimit:10;" d="M488.28,291.913
				c-0.226,0.602-0.533,1.196-0.932,1.777"/>
			<path style="fill:none;stroke:#263238;stroke-linecap:round;stroke-linejoin:round;stroke-miterlimit:10;" d="M485.579,280.824
				c2.006,2.751,3.577,6.122,3.131,9.384"/>
			<path style="fill:#FFFFFF;stroke:#263238;stroke-linecap:round;stroke-linejoin:round;stroke-miterlimit:10;" d="
				M463.262,275.434c0,0-2.587-0.647-3.45-0.108c-0.863,0.539-1.833,2.372-2.264,3.342c-0.431,0.97,0.216,1.833,1.617,2.048
				c1.401,0.216,3.234-1.617,3.234-1.617L463.262,275.434z"/>
			<g>
				<path style="fill:#FFFFFF;stroke:#263238;stroke-linecap:round;stroke-linejoin:round;stroke-miterlimit:10;" d="
					M477.385,272.847c0,0,6.576,9.487,6.792,12.829c0.216,3.342-1.294,6.792-4.528,7.331c-3.234,0.539-3.773-1.509-3.773-1.509
					s-7.008,1.509-7.331,1.509c-0.323,0-1.078-0.323-1.294-1.078c-0.216-0.755-0.755-1.725-0.755-1.725s-0.97-0.647-1.617-1.833
					c-0.647-1.186-0.862-1.725-0.862-1.725s-1.186-1.725-1.402-2.48c-0.216-0.755-0.216-2.156-0.216-2.156s-1.078-1.402-0.97-2.911
					c0.108-1.509,1.617-4.205,4.744-5.93c3.127-1.725,7.547-2.48,9.056-2.264C476.738,271.122,477.385,272.847,477.385,272.847z"/>
				
					<line style="fill:none;stroke:#263238;stroke-linecap:round;stroke-linejoin:round;stroke-miterlimit:10;" x1="471.26" y1="276.922" x2="462.4" y2="282.01"/>
				
					<line style="fill:none;stroke:#263238;stroke-linecap:round;stroke-linejoin:round;stroke-miterlimit:10;" x1="473.288" y1="275.757" x2="472.152" y2="276.41"/>
				
					<line style="fill:none;stroke:#263238;stroke-linecap:round;stroke-linejoin:round;stroke-miterlimit:10;" x1="475.876" y1="280.501" x2="464.017" y2="286.646"/>
				
					<line style="fill:none;stroke:#263238;stroke-linecap:round;stroke-linejoin:round;stroke-miterlimit:10;" x1="474.262" y1="286.762" x2="466.496" y2="290.204"/>
				
					<line style="fill:none;stroke:#263238;stroke-linecap:round;stroke-linejoin:round;stroke-miterlimit:10;" x1="476.954" y1="285.568" x2="475.413" y2="286.251"/>
			</g>
		</g>
		<g>
			<g>
				<path style="fill:#263238;stroke:#263238;stroke-linecap:round;stroke-linejoin:round;stroke-miterlimit:10;" d="
					M507.54,362.559v63.165H260.624v-63.165h-46.416v92.309c0,7.16,5.805,12.965,12.965,12.965h20.486
					c7.161,0,12.965-5.805,12.965-12.965v-4.261h22.49l10.527-6.699h179.923l13.399,7.656h20.576v3.304
					c0,7.16,5.805,12.965,12.965,12.965h20.486c7.161,0,12.965-5.805,12.965-12.965v-92.309H507.54z"/>
				<path style="fill:#92E3A9;stroke:#263238;stroke-linecap:round;stroke-linejoin:round;stroke-miterlimit:10;" d="
					M544.386,317.099c-1.72-3.44-14.263-16.544-16.785-19.162c-0.294-0.306-0.54-0.645-0.737-1.021
					c-3.071-5.857-29.112-72.966-33.679-81.484c-8.379-15.626-15.104-13.273-24.05-14.407c-0.264-0.034-0.525,0.043-0.79,0.03
					l-67.945-3.436c-11.19-0.566-22.401-0.569-33.591-0.009c-18.39,0.92-36.78,1.823-55.169,2.761
					c-15.347,0.783-30.141-0.211-38.573,15.061c-4.671,8.459-30.608,75.596-33.678,81.479c-0.198,0.379-0.445,0.722-0.742,1.03
					c-2.531,2.627-15.063,15.72-16.782,19.159c-1.914,3.828-9.57,18.184-9.57,21.055c0,2.477,1.78,43.411,9.642,75.498
					c2.343,9.563,9.588,17.225,19.063,19.905c0.672,0.19,1.177,0.3,1.442,0.3h59.608c1.609,0,3.096-0.857,3.902-2.25l14.102-24.358
					c0.279-0.482,0.639-0.903,1.073-1.252c2.22-1.789,9.718-7.072,20.847-7.072c9.79,0,28.764,0,38.281,0c3.508,0,5.742,0,5.742,0
					c9.517,0,28.492,0,38.282,0c11.129,0,18.627,5.283,20.847,7.072c0.433,0.349,0.794,0.771,1.073,1.252l14.102,24.358
					c0.806,1.392,2.293,2.25,3.902,2.25h59.608c0.265,0,0.769-0.11,1.441-0.3c9.475-2.679,16.721-10.341,19.064-19.905
					c7.862-32.087,9.642-73.022,9.642-75.499C553.957,335.283,546.3,320.928,544.386,317.099z M252.011,286.474
					c11.963-23.448,34.454-76.306,34.454-76.306c109.581-11.006,193.8-0.479,193.8-0.479l32.539,76.785
					C438.633,279.296,252.011,286.474,252.011,286.474z"/>
				<path style="fill:#787878;stroke:#263238;stroke-linecap:round;stroke-linejoin:round;stroke-miterlimit:10;" d="
					M304.648,433.858l-3.349,7.656h162.697l-2.393-7.656l-15.791-27.276c0,0-6.221-7.178-21.533-7.656
					c-15.313-0.478-82.305,0-82.305,0s-11.484-0.957-21.533,7.656L304.648,433.858z"/>
				<path style="fill:#263238;stroke:#263238;stroke-linecap:round;stroke-linejoin:round;stroke-miterlimit:10;" d="
					M318.525,342.94c0,0,12.92,22.969,16.748,26.797c3.828,3.828,8.135,3.828,13.399,4.307c5.264,0.479,77.52,0,77.52,0
					s5.742-0.957,8.613-5.264c2.871-4.307,12.442-25.84,12.442-25.84H318.525z"/>
				<path style="fill:#787878;stroke:#263238;stroke-linecap:round;stroke-linejoin:round;stroke-miterlimit:10;" d="
					M331.344,346.058c0,0,10.347,18.394,13.412,21.46c3.066,3.066,6.514,3.066,10.73,3.449c4.215,0.383,62.08,0,62.08,0
					s4.599-0.766,6.898-4.215c2.299-3.449,9.963-20.693,9.963-20.693H331.344z"/>
				<path style="fill:#FFFFFF;stroke:#263238;stroke-linecap:round;stroke-linejoin:round;stroke-miterlimit:10;" d="
					M452.032,438.643"/>
				<g>
					<path style="fill:#263238;stroke:#263238;stroke-linecap:round;stroke-linejoin:round;stroke-miterlimit:10;" d="
						M436.868,425.723l-2.863-7.907c-1.81-5-6.603-8.292-11.92-8.187l-77.72,0.781c-5.485,0.109-10.249,3.804-11.717,9.09
						l-1.936,6.222H436.868z"/>
					<polygon style="fill:#263238;stroke:#263238;stroke-linecap:round;stroke-linejoin:round;stroke-miterlimit:10;" points="
						329.521,429.552 327.138,437.208 441.026,437.208 438.254,429.552 					"/>
				</g>
				<path style="fill:#263238;stroke:#263238;stroke-linecap:round;stroke-linejoin:round;stroke-miterlimit:10;" d="
					M527.159,297.48c0,0,2.393-18.662,6.699-18.662c4.307,0,23.447,5.264,23.926,9.092c0.479,3.828-3.828,8.135-7.656,9.092
					c-3.828,0.957-11.963,1.914-11.963,1.914l-1.914,7.178L527.159,297.48z"/>
				<path style="fill:#263238;stroke:#263238;stroke-linecap:round;stroke-linejoin:round;stroke-miterlimit:10;" d="
					M239.091,297.48c0,0-2.393-18.662-6.699-18.662c-4.307,0-23.447,5.264-23.926,9.092c-0.479,3.828,3.828,8.135,7.656,9.092
					c3.828,0.957,11.963,1.914,11.963,1.914l1.914,7.178L239.091,297.48z"/>
				<path style="fill:#FFFFFF;stroke:#263238;stroke-linecap:round;stroke-linejoin:round;stroke-miterlimit:10;" d="
					M294.599,340.547c0,0,8.613,9.092,11.484,25.84c0,0-40.674-1.914-56.465-8.135c-15.791-6.221-17.705-6.699-18.184-9.57
					c-0.479-2.871,0.957-23.447,7.178-26.797c6.221-3.35,12.92-2.393,19.141,2.392c6.221,4.785,13.877,11.963,18.184,13.399
					C280.243,339.111,294.599,340.547,294.599,340.547z"/>
				<path style="fill:#FFFFFF;stroke:#263238;stroke-linecap:round;stroke-linejoin:round;stroke-miterlimit:10;" d="
					M266.727,341.937c0,6.194-5.021,11.215-11.216,11.215s-11.215-5.021-11.215-11.215c0-6.194,5.021-11.216,11.215-11.216
					S266.727,335.743,266.727,341.937z"/>
				<path style="fill:#FFFFFF;stroke:#263238;stroke-linecap:round;stroke-linejoin:round;stroke-miterlimit:10;" d="
					M286.755,355.956c0,2.876-2.331,5.207-5.207,5.207c-2.876,0-5.207-2.331-5.207-5.207s2.331-5.207,5.207-5.207
					C284.423,350.749,286.755,353.08,286.755,355.956z"/>
				<path style="fill:#FFFFFF;stroke:#263238;stroke-linecap:round;stroke-linejoin:round;stroke-miterlimit:10;" d="
					M473.002,340.547c0,0-8.614,9.092-11.485,25.84c0,0,40.674-1.914,56.465-8.135c15.791-6.221,17.705-6.699,18.184-9.57
					c0.479-2.871-0.957-23.447-7.178-26.797c-6.221-3.35-12.92-2.393-19.141,2.392c-6.221,4.785-13.877,11.963-18.184,13.399
					C487.358,339.111,473.002,340.547,473.002,340.547z"/>
				<path style="fill:#FFFFFF;stroke:#263238;stroke-linecap:round;stroke-linejoin:round;stroke-miterlimit:10;" d="
					M503.452,341.937c0,6.194,5.021,11.215,11.215,11.215s11.215-5.021,11.215-11.215c0-6.194-5.021-11.216-11.215-11.216
					S503.452,335.743,503.452,341.937z"/>
				<path style="fill:#FFFFFF;stroke:#263238;stroke-linecap:round;stroke-linejoin:round;stroke-miterlimit:10;" d="
					M483.425,355.956c0,2.876,2.331,5.207,5.207,5.207c2.876,0,5.207-2.331,5.207-5.207s-2.331-5.207-5.207-5.207
					C485.756,350.749,483.425,353.08,483.425,355.956z"/>
				<path style="fill:#263238;stroke:#263238;stroke-linecap:round;stroke-linejoin:round;stroke-miterlimit:10;" d="
					M524.288,383.135c0,0-44.502,8.613-46.416,10.049c-1.914,1.435-5.742,9.57-5.742,9.57l9.092-2.393
					c0,0,21.055,0.957,28.233-2.393C516.632,394.62,524.288,383.135,524.288,383.135z"/>
				<path style="fill:#263238;stroke:#263238;stroke-linecap:round;stroke-linejoin:round;stroke-miterlimit:10;" d="
					M245.311,383.135c0,0,44.502,8.613,46.416,10.049c1.914,1.435,5.742,9.57,5.742,9.57l-9.092-2.393
					c0,0-21.055,0.957-28.233-2.393C252.968,394.62,245.311,383.135,245.311,383.135z"/>
				<polyline style="fill:none;stroke:#263238;stroke-linecap:round;stroke-linejoin:round;stroke-miterlimit:10;" points="
					468.513,347.912 456.629,343.95 447.247,343.95 				"/>
				<polyline style="fill:none;stroke:#263238;stroke-linecap:round;stroke-linejoin:round;stroke-miterlimit:10;" points="
					299.874,347.346 307.797,342.819 318.525,342.94 				"/>
				<path style="fill:none;stroke:#263238;stroke-linecap:round;stroke-linejoin:round;stroke-miterlimit:10;" d="M502.197,294.393
					c1.206-0.692,2.428-1.34,3.666-1.94"/>
				<path style="fill:none;stroke:#263238;stroke-linecap:round;stroke-linejoin:round;stroke-miterlimit:10;" d="M449.52,362.324
					c7.485-16.457,24.604-49.188,48.53-65.342"/>
				<path style="fill:none;stroke:#263238;stroke-linecap:round;stroke-linejoin:round;stroke-miterlimit:10;" d="M445.311,372.246
					c0,0,0.59-1.568,1.732-4.276"/>
				<path style="fill:none;stroke:#263238;stroke-linecap:round;stroke-linejoin:round;stroke-miterlimit:10;" d="M268.128,296.974
					c-1.985-1.205-4.041-2.338-6.17-3.389"/>
				<path style="fill:none;stroke:#263238;stroke-linecap:round;stroke-linejoin:round;stroke-miterlimit:10;" d="M316.058,362.687
					c-4.903-14.645-17.671-44.948-43.714-62.978"/>
				<path style="fill:none;stroke:#263238;stroke-linecap:round;stroke-linejoin:round;stroke-miterlimit:10;" d="M318.549,371.114
					c0,0-0.353-1.522-1.139-4.16"/>
				<path style="fill:#FFFFFF;stroke:#263238;stroke-linecap:round;stroke-linejoin:round;stroke-miterlimit:10;" d="
					M248.376,320.182c0,0-5.093-12.45-5.093-19.807"/>
				<path style="fill:#FFFFFF;stroke:#263238;stroke-linecap:round;stroke-linejoin:round;stroke-miterlimit:10;" d="
					M520.577,319.616c0,0,1.698-5.659,2.829-15.845"/>
				<path style="fill:none;stroke:#263238;stroke-linecap:round;stroke-linejoin:round;stroke-miterlimit:10;" d="M538.12,372.812
					l-3.396,44.14l-62.815,2.829c0,0-10.752-13.016-11.318-18.675c-0.566-5.659,7.357-14.148,9.62-14.714
					c2.264-0.566,41.877-8.488,41.877-8.488"/>
				<path style="fill:none;stroke:#263238;stroke-linecap:round;stroke-linejoin:round;stroke-miterlimit:10;" d="M230.805,372.812
					l3.395,44.14l62.815,2.829c0,0,10.752-13.016,11.318-18.675c0.566-5.659-7.357-14.148-9.62-14.714
					c-2.264-0.566-41.877-8.488-41.877-8.488"/>
				<path style="fill:none;stroke:#263238;stroke-linecap:round;stroke-linejoin:round;stroke-miterlimit:10;" d="M335.818,353.604
					l46.177,3.694c1.962,0.157,3.934,0.159,5.897,0.007l42.56-3.306"/>
				<path style="fill:none;stroke:#263238;stroke-linecap:round;stroke-linejoin:round;stroke-miterlimit:10;" d="M338.863,358.438
					l43.132,3.451c1.962,0.157,3.934,0.159,5.897,0.007l41.067-3.19"/>
				<path style="fill:none;stroke:#263238;stroke-linecap:round;stroke-linejoin:round;stroke-miterlimit:10;" d="M341.949,363.275
					l40.046,3.204c1.962,0.157,3.934,0.159,5.897,0.007l38.991-3.029"/>
			</g>
			<path style="fill:none;stroke:#263238;stroke-linecap:round;stroke-linejoin:round;stroke-miterlimit:10;" d="M252.011,286.474
				c0,0,186.623-7.178,260.793,0l-32.539-76.785c0,0-84.219-10.527-193.8,0.479C286.464,210.168,263.974,263.027,252.011,286.474z"
				/>
		</g>
	</g>
</g>
</svg>
